# Blender 4.4.0
# www.blender.org
mtllib BridgePart.mtl
o Cube
v 0.857503 0.273076 -1.786579
v 0.857616 0.295999 -1.536067
v 0.997280 0.268062 -1.536689
v 0.857585 -0.103921 -1.544074
v 0.857476 -0.070989 -1.793467
v 0.997253 -0.076003 -1.543577
v 0.998643 0.206413 1.542689
v 0.858979 0.234351 1.543310
v 0.859087 0.201419 1.792703
v 0.998616 -0.137651 1.535801
v 0.859061 -0.142646 1.785815
v 0.858948 -0.165569 1.535304
v -0.863164 0.273194 -1.785815
v -1.002720 0.268199 -1.535801
v -0.863051 0.296117 -1.535304
v -1.002746 -0.075865 -1.542689
v -0.863191 -0.070871 -1.792703
v -0.863082 -0.103803 -1.543310
v -1.001357 0.206551 1.543577
v -0.861580 0.201537 1.793467
v -0.861688 0.234469 1.544074
v -0.861719 -0.165451 1.536067
v -0.861607 -0.142528 1.786579
v -1.001383 -0.137514 1.536689
v 0.435510 -0.103892 -1.543886
v 0.435402 -0.070960 -1.793280
v 0.460890 0.213634 1.361658
v 0.434358 0.231617 1.666423
v 0.436873 -0.165540 1.535491
v 0.434380 -0.114654 1.769761
v 0.435541 0.296028 -1.535880
v 0.435428 0.273105 -1.786392
v 0.076259 -0.103867 -1.543727
v 0.095039 0.217801 1.491855
v 0.075850 -0.122365 1.774414
v 0.076177 0.273129 -1.867474
v 0.076151 -0.070935 -1.793120
v 0.075877 0.221699 1.781302
v 0.077622 -0.165516 1.535650
v 0.076290 0.296053 -1.616963
v 0.612542 -0.070972 -1.793358
v 0.612641 0.217662 1.783387
v 0.614013 -0.165553 1.535412
v 0.612681 0.296016 -1.535959
v 0.612650 -0.103904 -1.543965
v 0.627992 0.221048 1.501861
v 0.612614 -0.126402 1.776499
v 0.612569 0.273092 -1.786470
v -0.127926 -0.103853 -1.543636
v -0.112925 0.221424 1.503206
v -0.127925 -0.126748 1.777058
v -0.128008 0.273143 -1.648314
v -0.128034 -0.070921 -1.793030
v -0.127899 0.217316 1.783946
v -0.126563 -0.165502 1.535741
v -0.127895 0.296067 -1.397802
v -0.577971 -0.103822 -1.543436
v -0.571300 0.229410 1.528224
v -0.577067 -0.136408 1.782887
v -0.578053 0.273174 -1.785942
v -0.578079 -0.070890 -1.792830
v -0.577040 0.207657 1.789775
v -0.576608 -0.165471 1.535941
v -0.577940 0.296098 -1.535430
v -0.862376 -0.135763 0.053127
v -1.002040 -0.107826 0.053748
v 0.858323 0.264039 0.060369
v 0.997987 0.236102 0.059748
v -0.783198 0.264157 0.061133
v -0.922866 0.236239 0.060636
v 0.858292 -0.135881 0.052363
v 0.997960 -0.107963 0.052860
v 0.448683 0.253312 -0.033714
v 0.436217 -0.135852 0.052550
v 0.076966 -0.135827 0.052710
v 0.086010 0.255485 -0.005263
v 0.620619 0.257150 0.038933
v 0.613357 -0.135864 0.052471
v -0.127219 -0.135813 0.052800
v -0.120134 0.257370 0.106163
v -0.577264 -0.135783 0.053000
v -0.574497 0.261525 0.052855
vn -0.0001 -0.9998 -0.0200
vn -0.9931 0.1138 0.0273
vn 0.0134 -0.0200 0.9997
vn 0.0164 0.9996 0.0213
vn 1.0000 -0.0001 -0.0004
vn 0.1950 0.9767 -0.0895
vn 0.1948 -0.9724 -0.1285
vn 0.1951 0.9724 0.1283
vn 0.1949 -0.9767 0.0893
vn -0.1949 0.9767 -0.0893
vn -0.1951 -0.9724 -0.1283
vn -0.1948 0.9724 0.1285
vn -0.1950 -0.9767 0.0895
vn -0.1962 -0.9804 -0.0195
vn -0.0001 -0.9914 -0.1309
vn 0.8728 0.0097 -0.4880
vn -0.8728 -0.0097 0.4880
vn 0.8732 -0.0098 0.4872
vn -0.8732 0.0098 -0.4872
vn 0.0018 0.9943 0.1064
vn 0.1962 0.9804 0.0195
vn -0.0352 -0.9915 0.1251
vn -0.1960 0.9802 0.0294
vn -0.0000 0.9958 -0.0911
vn 0.1960 -0.9804 -0.0197
vn -0.0004 0.0200 -0.9998
vn 0.1114 -0.0970 -0.9890
vn 0.0206 0.9956 -0.0911
vn 0.0118 -0.9807 0.1951
vn 0.0356 0.9991 -0.0223
vn -0.0500 0.9984 0.0268
vn -0.3165 0.1313 0.9395
vn 0.0117 -0.9857 0.1682
vn -0.0972 0.9911 -0.0907
vn -0.4711 0.0898 -0.8775
vn -0.0209 0.9990 -0.0384
vn 0.0145 0.9995 0.0266
vn 0.1596 0.1366 0.9777
vn -0.0391 -0.0200 0.9990
vn -0.0460 0.9987 0.0224
vn -0.0011 0.9977 0.0682
vn -0.0360 -0.9819 0.1857
vn 0.1475 0.2128 -0.9659
vn 0.0279 0.9954 -0.0911
vn 0.0115 -0.9904 0.1376
vn -0.0018 1.0000 0.0003
vn 0.0208 0.9995 0.0253
vn 0.0113 -0.9945 0.1039
vn -0.0002 0.9989 0.0476
vn 0.0126 0.9996 0.0236
vn -0.0004 0.9997 0.0237
vn 0.0250 0.9994 0.0253
vn -0.0152 0.9996 0.0224
vn 0.0011 0.9996 0.0267
vn -0.0165 0.9995 0.0266
vn -0.1960 0.9806 0.0093
vn 0.0057 0.9998 0.0207
vn -0.9931 0.1148 -0.0238
vt 0.326925 0.628964
vt 0.357542 0.628964
vt 0.357542 0.732542
vt 0.326925 0.732542
vt 0.392458 0.121036
vt 0.607542 0.121036
vt 0.607542 0.232542
vt 0.392458 0.232542
vt 0.392458 0.946903
vt 0.607542 0.946903
vt 0.607542 0.982542
vt 0.392458 0.982542
vt 0.821903 0.628964
vt 0.857542 0.628964
vt 0.857542 0.732542
vt 0.821903 0.732542
vt 0.392458 0.628964
vt 0.607542 0.628964
vt 0.607542 0.732542
vt 0.392458 0.732542
vt 0.607542 0.482542
vt 0.625000 0.482542
vt 0.607542 0.500000
vt 0.357542 0.517458
vt 0.357542 0.500000
vt 0.375000 0.517458
vt 0.607542 0.750000
vt 0.625000 0.767458
vt 0.607542 0.767458
vt 0.375000 0.732542
vt 0.357542 0.750000
vt 0.607542 0.250000
vt 0.625000 0.232542
vt 0.125000 0.517458
vt 0.142458 0.500000
vt 0.142458 0.517458
vt 0.607542 0.017458
vt 0.607542 0.000000
vt 0.625000 0.017458
vt 0.142458 0.732542
vt 0.142458 0.750000
vt 0.125000 0.732542
vt 0.142458 0.628964
vt 0.125000 0.628964
vt 0.178097 0.517458
vt 0.178097 0.500000
vt 0.607542 0.517458
vt 0.392458 0.517458
vt 0.392458 0.482542
vt 0.392458 0.000000
vt 0.392458 0.017458
vt 0.392458 0.767458
vt 0.607542 0.267458
vt 0.392458 0.267458
vt 0.625000 0.946903
vt 0.625000 0.982542
vt 0.642458 0.628964
vt 0.642458 0.732542
vt 0.326925 0.750000
vt 0.625000 0.121036
vt 0.625000 0.451925
vt 0.607542 0.451925
vt 0.392458 0.451925
vt 0.392458 0.384876
vt 0.607542 0.384876
vt 0.607542 0.429782
vt 0.392458 0.429782
vt 0.625000 0.384876
vt 0.625000 0.429782
vt 0.259876 0.732542
vt 0.304782 0.732542
vt 0.304782 0.750000
vt 0.259876 0.750000
vt 0.625000 0.798075
vt 0.625000 0.820218
vt 0.607542 0.820218
vt 0.607542 0.798075
vt 0.326925 0.517458
vt 0.304782 0.517458
vt 0.304782 0.500000
vt 0.326925 0.500000
vt 0.673075 0.628964
vt 0.695218 0.628964
vt 0.695218 0.732542
vt 0.673075 0.732542
vt 0.392458 0.798075
vt 0.392458 0.820218
vt 0.259876 0.628964
vt 0.304782 0.628964
vt 0.234353 0.628964
vt 0.234353 0.732542
vt 0.234353 0.750000
vt 0.625000 0.359353
vt 0.607542 0.359353
vt 0.392458 0.359353
vt 0.625000 0.865124
vt 0.607542 0.865124
vt 0.259876 0.517458
vt 0.259876 0.500000
vt 0.740124 0.628964
vt 0.740124 0.732542
vt 0.392458 0.865124
vt 0.392458 0.303097
vt 0.607542 0.303097
vt 0.625000 0.303097
vt 0.178097 0.732542
vt 0.178097 0.750000
vt 0.178097 0.628964
vt 0.625000 0.890647
vt 0.607542 0.890647
vt 0.234353 0.517458
vt 0.234353 0.500000
vt 0.765647 0.628964
vt 0.765647 0.732542
vt 0.392458 0.890647
vt 0.625000 0.267458
vt 0.765647 0.517458
vt 0.821903 0.517458
vt 0.740124 0.517458
vt 0.642458 0.517458
vt 0.673075 0.517458
vt 0.695218 0.517458
vt 0.857542 0.517458
s 0
usemtl Material
f 78/1/1 71/2/1 12/3/1 43/4/1
f 66/5/2 70/6/2 14/7/2 16/8/2
f 59/9/3 62/10/3 20/11/3 23/12/3
f 82/13/4 69/14/4 21/15/4 58/16/4
f 72/17/5 68/18/5 7/19/5 10/20/5
f 1/21/6 2/22/6 3/23/6
f 4/24/7 5/25/7 6/26/7
f 7/27/8 8/28/8 9/29/8
f 10/30/9 11/31/9 12/3/9
f 13/32/10 14/7/10 15/33/10
f 16/34/11 17/35/11 18/36/11
f 19/37/12 20/38/12 21/39/12
f 22/40/13 23/41/13 24/42/13
f 65/43/14 22/40/14 24/42/14 66/44/14
f 57/45/15 18/36/15 17/35/15 61/46/15
f 3/47/16 6/48/16 5/49/16 1/21/16
f 23/50/17 20/38/17 19/37/17 24/51/17
f 9/29/18 11/52/18 10/20/18 7/19/18
f 13/53/19 17/54/19 16/8/19 14/7/19
f 58/55/20 21/56/20 20/11/20 62/10/20
f 67/57/21 8/58/21 7/19/21 68/18/21
f 43/4/22 12/3/22 11/31/22 47/59/22
f 69/60/23 15/33/23 14/7/23 70/6/23
f 44/61/24 2/22/24 1/21/24 48/62/24
f 71/2/25 4/24/25 6/48/25 72/17/25
f 41/63/26 48/62/26 1/21/26 5/49/26
f 37/64/27 36/65/27 32/66/27 26/67/27
f 40/68/28 31/69/28 32/66/28 36/65/28
f 39/70/29 29/71/29 30/72/29 35/73/29
f 46/74/30 27/75/30 28/76/30 42/77/30
f 45/78/15 25/79/15 26/80/15 41/81/15
f 77/82/31 73/83/31 27/84/31 46/85/31
f 47/86/32 42/77/32 28/76/32 30/87/32
f 75/88/1 74/89/1 29/71/1 39/70/1
f 79/90/1 75/88/1 39/70/1 55/91/1
f 55/91/33 39/70/33 35/73/33 51/92/33
f 56/93/34 40/68/34 36/65/34 52/94/34
f 53/95/35 52/94/35 36/65/35 37/64/35
f 27/75/36 34/96/36 38/97/36 28/76/36
f 25/79/15 33/98/15 37/99/15 26/80/15
f 73/83/37 76/100/37 34/101/37 27/84/37
f 30/87/38 28/76/38 38/97/38 35/102/38
f 11/52/39 9/29/39 42/77/39 47/86/39
f 67/57/40 77/82/40 46/85/40 8/58/40
f 4/24/15 45/78/15 41/81/15 5/25/15
f 8/28/41 46/74/41 42/77/41 9/29/41
f 26/67/26 32/66/26 48/62/26 41/63/26
f 31/69/24 44/61/24 48/62/24 32/66/24
f 29/71/42 43/4/42 47/59/42 30/72/42
f 74/89/1 78/1/1 43/4/1 29/71/1
f 61/103/43 60/104/43 52/94/43 53/95/43
f 64/105/44 56/93/44 52/94/44 60/104/44
f 63/106/45 55/91/45 51/92/45 59/107/45
f 81/108/1 79/90/1 55/91/1 63/106/1
f 34/96/46 50/109/46 54/110/46 38/97/46
f 33/98/15 49/111/15 53/112/15 37/99/15
f 76/100/47 80/113/47 50/114/47 34/101/47
f 35/102/3 38/97/3 54/110/3 51/115/3
f 65/43/1 81/108/1 63/106/1 22/40/1
f 22/40/48 63/106/48 59/107/48 23/41/48
f 15/116/24 64/105/24 60/104/24 13/53/24
f 17/54/26 13/53/26 60/104/26 61/103/26
f 50/109/49 58/55/49 62/10/49 54/110/49
f 49/111/15 57/45/15 61/46/15 53/112/15
f 80/113/50 82/13/50 58/16/50 50/114/50
f 51/115/3 54/110/3 62/10/3 59/9/3
f 56/117/51 64/118/51 82/13/51 80/113/51
f 18/36/1 57/45/1 81/108/1 65/43/1
f 40/119/52 56/117/52 80/113/52 76/100/52
f 57/45/1 49/111/1 79/90/1 81/108/1
f 25/79/1 45/78/1 78/1/1 74/89/1
f 2/120/53 44/121/53 77/82/53 67/57/53
f 31/122/54 40/119/54 76/100/54 73/83/54
f 49/111/1 33/98/1 75/88/1 79/90/1
f 33/98/1 25/79/1 74/89/1 75/88/1
f 44/121/55 31/122/55 73/83/55 77/82/55
f 12/3/25 71/2/25 72/17/25 10/20/25
f 21/39/56 69/60/56 70/6/56 19/37/56
f 2/120/21 67/57/21 68/18/21 3/47/21
f 18/36/14 65/43/14 66/44/14 16/34/14
f 6/48/5 3/47/5 68/18/5 72/17/5
f 64/118/57 15/123/57 69/14/57 82/13/57
f 24/51/58 19/37/58 70/6/58 66/5/58
f 45/78/1 4/24/1 71/2/1 78/1/1
o SideThings
v 2.263733 -1.150929 2.817200
v 2.263733 -0.150930 2.817200
v 3.000000 -1.150929 1.748719
v 3.000000 -0.150930 1.748719
v 2.500000 -0.825471 0.000000
v 2.500000 -0.150930 0.000000
v 2.500000 -0.150930 1.748719
v 2.500000 -1.150929 1.748719
v 3.000000 -1.150929 2.817200
v 3.000000 -0.150930 2.817200
v 3.000000 -0.150930 0.000000
v 3.000000 -0.825471 0.000000
v 2.263733 -1.150929 1.814327
v 3.000000 -0.150930 1.814327
v 3.000000 -1.150929 1.814327
v 2.263733 -0.040970 1.814327
v 2.263733 0.763628 2.645193
v 3.000000 0.931636 2.817200
v 3.000000 0.931636 1.814327
v 2.263733 0.763628 1.986334
v 2.500000 -0.150930 1.197650
v 3.000000 -1.150929 1.197650
v 3.000000 -0.150930 1.197650
v 2.500000 -1.150929 1.197650
v 2.500000 -0.150930 0.551972
v 3.000000 -0.890898 0.551972
v 3.000000 -0.150930 0.551972
v 2.500000 -0.890898 0.551972
v 2.263733 -3.673216 2.817200
v 3.000000 -3.673216 2.817200
v 2.263733 -3.673216 1.814327
v 3.000000 -3.673216 1.814327
v 2.563012 -0.650930 2.817200
v 2.622859 -0.650930 1.748719
v 2.622859 -0.488200 0.000000
v 3.000000 -0.650930 2.817200
v 2.563012 -0.650930 1.814327
v 2.622859 -0.650930 1.197650
v 2.622859 -0.520914 0.551972
v 3.000000 0.562311 1.814327
v 3.000000 0.562311 2.817200
v 2.415363 0.451621 2.703874
v 2.415363 0.451621 1.927653
v 2.263733 -1.150929 -2.817200
v 2.263733 -0.150930 -2.817200
v 3.000000 -1.150929 -1.748719
v 3.000000 -0.150930 -1.748719
v 2.500000 -0.150930 -1.748719
v 2.500000 -1.150929 -1.748719
v 3.000000 -1.150929 -2.817200
v 3.000000 -0.150930 -2.817200
v 2.263733 -1.150929 -1.814327
v 3.000000 -0.150930 -1.814327
v 3.000000 -1.150929 -1.814327
v 2.263733 -0.040970 -1.814327
v 2.263733 0.763628 -2.645193
v 3.000000 0.931636 -2.817200
v 3.000000 0.931636 -1.814327
v 2.263733 0.763628 -1.986334
v 2.500000 -0.150930 -1.197650
v 3.000000 -1.150929 -1.197650
v 3.000000 -0.150930 -1.197650
v 2.500000 -1.150929 -1.197650
v 2.500000 -0.150930 -0.551972
v 3.000000 -0.890898 -0.551972
v 3.000000 -0.150930 -0.551972
v 2.500000 -0.890898 -0.551972
v 2.263733 -3.673216 -2.817200
v 3.000000 -3.673216 -2.817200
v 2.263733 -3.673216 -1.814327
v 3.000000 -3.673216 -1.814327
v 2.563012 -0.650930 -2.817200
v 2.622859 -0.650930 -1.748719
v 3.000000 -0.650930 -2.817200
v 2.563012 -0.650930 -1.814327
v 2.622859 -0.650930 -1.197650
v 2.622859 -0.520914 -0.551972
v 3.000000 0.562311 -1.814327
v 3.000000 0.562311 -2.817200
v 2.415363 0.451621 -2.703874
v 2.415363 0.451621 -1.927653
vn -0.0000 1.0000 -0.0000
vn -0.7898 0.6133 -0.0111
vn -0.6412 0.6925 -0.3307
vn 0.0178 0.9906 -0.1357
vn -0.0000 -0.0000 1.0000
vn 0.9405 0.0165 0.3394
vn -0.9633 -0.2330 0.1333
vn -0.9673 0.0246 0.2524
vn 0.9836 0.0113 0.1798
vn 0.9837 0.0119 -0.1797
vn 0.6123 0.7808 -0.1242
vn 0.6123 0.7808 0.1242
vn -0.7474 -0.6590 -0.0845
vn -0.0000 -0.9934 -0.1150
vn -0.0000 -1.0000 -0.0000
vn -0.3659 -0.9280 -0.0703
vn -0.9991 -0.0425 0.0061
vn -0.8034 0.5953 -0.0156
vn -0.8143 0.5804 -0.0000
vn -0.9976 -0.0687 -0.0000
vn -0.9698 0.0217 -0.2431
vn -0.9897 0.0386 -0.1376
vn -0.9898 -0.0006 -0.1425
vn -0.9528 0.2634 0.1508
vn -0.7016 -0.7016 0.1245
vn -0.0000 -0.9846 0.1748
vn -0.0000 -0.9846 -0.1748
vn -0.9564 0.2524 -0.1471
vn 0.9205 0.2464 -0.3033
vn -0.8972 0.4263 -0.1153
vn -0.8972 0.4263 0.1153
vn -0.9750 -0.0629 -0.2133
vn -0.9718 -0.0645 0.2269
vn -0.9975 0.0658 0.0268
vn -0.9570 -0.2849 -0.0548
vn -0.0000 -0.9784 -0.2068
vn -0.9542 -0.2993 -0.0000
vn -0.7016 -0.7016 -0.1245
vn 1.0000 -0.0000 -0.0000
vn 0.0178 0.9906 0.1357
vn -0.6412 0.6925 0.3307
vn -0.7898 0.6133 0.0111
vn -0.0000 -0.0000 -1.0000
vn -0.9673 0.0246 -0.2524
vn -0.9633 -0.2330 -0.1333
vn 0.9405 0.0165 -0.3394
vn 0.9836 0.0113 -0.1798
vn 0.9837 0.0119 0.1797
vn -0.7474 -0.6590 0.0845
vn -0.3659 -0.9280 0.0703
vn -0.0000 -0.9934 0.1150
vn -0.9991 -0.0425 -0.0061
vn -0.8034 0.5953 0.0156
vn -0.9698 0.0217 0.2431
vn -0.9898 -0.0006 0.1425
vn -0.9897 0.0386 0.1376
vn -0.9528 0.2634 -0.1508
vn -0.9564 0.2524 0.1471
vn 0.9205 0.2464 0.3033
vn -0.9750 -0.0629 0.2133
vn -0.9718 -0.0645 -0.2269
vn -0.9975 0.0658 -0.0268
vn -0.9570 -0.2849 0.0548
vn -0.0000 -0.9784 0.2068
vt 0.750000 0.692500
vt 0.875000 0.692499
vt 0.875000 0.723558
vt 0.750000 0.723558
vt 0.500000 0.875000
vt 0.625000 0.875000
vt 0.625000 1.000000
vt 0.500000 1.000000
vt 0.000000 0.000000
vt 0.125000 0.692500
vt 0.250000 0.692499
vt 0.250000 0.723558
vt 0.125000 0.723558
vt 0.500000 0.093891
vt 0.625000 0.093891
vt 0.625000 0.125000
vt 0.500000 0.125000
vt 0.500000 0.024819
vt 0.625000 0.024819
vt 0.625000 0.026442
vt 0.500000 0.026442
vt 0.375000 0.875000
vt 0.375000 1.000000
vt 0.250000 0.725181
vt 0.125000 0.725181
vt 0.500000 0.000000
vt 0.625000 0.000000
vt 0.875000 0.725181
vt 0.750000 0.725181
vt 0.875000 0.750000
vt 0.750000 0.750000
vt 0.625000 0.024819
vt 0.625000 0.057501
vt 0.500000 0.057501
vt 0.125000 0.656109
vt 0.250000 0.656109
vt 0.750000 0.656109
vt 0.875000 0.656109
vt 0.750000 0.625000
vt 0.875000 0.625000
vt 0.125000 0.625000
vt 0.250000 0.625000
vt 0.250000 0.750000
vt 0.125000 0.750000
vt 0.375000 0.000000
vt 0.375000 0.024819
vt 0.375000 0.057501
vt 0.375000 0.093891
vt 0.375000 0.026442
vt 0.375000 0.125000
s 1
f 105/124/59 103/125/60 89/126/61 86/127/62
f 118/128/63 92/129/64 84/130/65 115/131/66
f 123/132/67 122/132/68 101/132/69 100/132/70
f 106/133/71 104/134/72 85/135/73 90/136/74
f 121/137/75 107/138/76 88/139/77 117/140/78
f 119/141/79 98/142/80 89/143/61 116/144/81
f 91/145/63 83/146/82 111/146/83 112/145/84
f 90/136/74 85/135/73 97/147/85 95/148/86
f 115/149/66 84/150/65 98/142/80 119/141/79
f 86/127/62 89/126/61 98/151/80 96/152/87
f 101/152/69 102/151/88 99/153/89 100/154/70
f 125/155/90 124/150/91 99/150/89 102/142/88
f 124/130/91 123/129/67 100/129/70 99/130/89
f 122/152/68 125/151/90 102/151/88 101/152/69
f 116/144/81 89/143/61 103/156/60 120/157/92
f 110/158/93 108/159/94 104/134/72 106/133/71
f 109/160/59 107/161/76 103/125/60 105/124/59
f 93/162/59 88/163/77 107/161/76 109/160/59
f 87/164/95 94/165/73 108/159/94 110/158/93
f 120/157/92 103/156/60 107/138/76 121/137/75
f 113/148/96 114/147/85 112/166/84 111/167/83
s 0
f 97/132/97 91/132/97 112/132/97 114/132/97
s 1
f 83/168/82 95/169/86 113/169/96 111/168/83
f 95/148/86 97/147/85 114/147/85 113/148/96
f 106/170/71 120/157/92 121/137/75 110/171/93
f 90/172/74 116/144/81 120/157/92 106/170/71
f 83/168/82 115/149/66 119/141/79 95/169/86
f 95/169/86 119/141/79 116/144/81 90/172/74
f 110/171/93 121/137/75 117/140/78 87/173/95
f 91/145/63 118/128/63 115/131/66 83/146/82
f 96/152/87 98/151/80 125/151/90 122/152/68
f 84/130/65 92/129/64 123/129/67 124/130/91
f 98/142/80 84/150/65 124/150/91 125/155/90
f 92/132/64 96/132/87 122/132/68 123/132/67
f 144/124/59 129/127/98 130/126/99 142/125/100
f 156/128/101 154/131/102 127/130/103 133/129/104
f 161/132/105 139/132/69 140/132/70 160/132/106
f 145/133/107 131/136/108 128/135/73 143/134/109
f 159/137/110 117/140/78 88/139/77 146/138/111
f 157/141/112 155/144/113 130/143/99 137/142/114
f 132/145/101 151/145/85 150/146/96 126/146/115
f 131/136/108 134/148/116 136/147/84 128/135/73
f 154/149/102 157/141/112 137/142/114 127/150/103
f 129/127/98 135/152/117 137/151/114 130/126/99
f 140/152/70 139/154/69 138/153/88 141/151/89
f 163/155/118 141/142/89 138/150/88 162/150/119
f 162/130/119 138/130/88 139/129/69 161/129/105
f 160/152/106 140/152/70 141/151/89 163/151/118
f 155/144/113 158/157/120 142/156/100 130/143/99
f 149/158/121 145/133/107 143/134/109 147/159/122
f 148/160/59 144/124/59 142/125/100 146/161/111
f 93/162/59 148/160/59 146/161/111 88/163/77
f 87/164/95 149/158/121 147/159/122 94/165/73
f 158/157/120 159/137/110 146/138/111 142/156/100
f 152/148/83 150/167/96 151/166/85 153/147/84
s 0
f 136/132/97 153/132/97 151/132/97 132/132/97
s 1
f 126/168/115 150/168/96 152/169/83 134/169/116
f 134/148/116 152/148/83 153/147/84 136/147/84
f 145/170/107 149/171/121 159/137/110 158/157/120
f 131/172/108 145/170/107 158/157/120 155/144/113
f 126/168/115 134/169/116 157/141/112 154/149/102
f 134/169/116 131/172/108 155/144/113 157/141/112
f 149/171/121 87/173/95 117/140/78 159/137/110
f 132/145/101 126/146/115 154/131/102 156/128/101
f 135/152/117 160/152/106 163/151/118 137/151/114
f 127/130/103 162/130/119 161/129/105 133/129/104
f 137/142/114 163/155/118 162/150/119 127/150/103
f 133/132/104 161/132/105 160/132/106 135/132/117
o SideTHings
v -2.263732 -1.150929 -2.817199
v -2.263732 -0.150930 -2.817199
v -3.000000 -1.150929 -1.748719
v -3.000000 -0.150930 -1.748719
v -2.500000 -0.825471 0.000000
v -2.500000 -0.150930 0.000000
v -2.500000 -0.150930 -1.748719
v -2.500000 -1.150929 -1.748719
v -2.999999 -1.150929 -2.817200
v -2.999999 -0.150930 -2.817200
v -3.000000 -0.150930 0.000000
v -3.000000 -0.825471 0.000000
v -2.263732 -1.150929 -1.814327
v -3.000000 -0.150930 -1.814327
v -3.000000 -1.150929 -1.814327
v -2.263732 -0.290851 -1.814327
v -2.263732 0.763628 -2.645193
v -2.999999 0.931636 -2.817200
v -3.000000 0.931636 -1.814327
v -2.263732 0.763628 -1.986334
v -2.500000 -0.150930 -1.197650
v -3.000000 -1.150929 -1.197650
v -3.000000 -0.150930 -1.197650
v -2.500000 -1.150929 -1.197650
v -2.500000 -0.150930 -0.551972
v -3.000000 -0.890898 -0.551972
v -3.000000 -0.150930 -0.551972
v -2.500000 -0.890898 -0.551972
v -2.263732 -3.673216 -2.817199
v -2.999999 -3.673216 -2.817200
v -2.263732 -3.673216 -1.814327
v -3.000000 -3.673216 -1.814327
v -2.563011 -0.650930 -2.817199
v -2.622859 -0.650930 -1.748719
v -2.622859 -0.488200 0.000000
v -2.999999 -0.650930 -2.817200
v -2.563011 -0.650930 -1.814327
v -2.622859 -0.650930 -1.197650
v -2.622859 -0.520914 -0.551972
v -3.000000 0.562311 -1.814327
v -2.999999 0.562311 -2.817200
v -2.415362 0.451621 -2.703874
v -2.415362 0.451621 -1.927653
v -2.263733 -1.150929 2.817200
v -2.263733 -0.150930 2.817200
v -3.000000 -1.150929 1.748719
v -3.000000 -0.150930 1.748719
v -2.500000 -0.150930 1.748719
v -2.500000 -1.150929 1.748719
v -3.000001 -1.150929 2.817200
v -3.000001 -0.150930 2.817200
v -2.263733 -1.150929 1.814328
v -3.000000 -0.150930 1.814327
v -3.000000 -1.150929 1.814327
v -2.263733 -0.290851 1.814328
v -2.263733 0.763628 2.645193
v -3.000001 0.931636 2.817200
v -3.000000 0.931636 1.814327
v -2.263733 0.763628 1.986334
v -2.500000 -0.150930 1.197650
v -3.000000 -1.150929 1.197650
v -3.000000 -0.150930 1.197650
v -2.500000 -1.150929 1.197650
v -2.500000 -0.150930 0.551972
v -3.000000 -0.890898 0.551972
v -3.000000 -0.150930 0.551972
v -2.500000 -0.890898 0.551972
v -2.263733 -3.673216 2.817200
v -3.000001 -3.673216 2.817200
v -2.263733 -3.673216 1.814328
v -3.000000 -3.673216 1.814327
v -2.563013 -0.650930 2.817200
v -2.622859 -0.650930 1.748719
v -3.000001 -0.650930 2.817200
v -2.563013 -0.650930 1.814328
v -2.622859 -0.650930 1.197650
v -2.622859 -0.520914 0.551972
v -3.000000 0.562311 1.814327
v -3.000001 0.562311 2.817200
v -2.415364 0.451621 2.703875
v -2.415364 0.451621 1.927653
vn -0.0000 1.0000 -0.0000
vn 0.7898 0.6133 0.0111
vn 0.7008 0.7070 -0.0953
vn 0.0188 0.9895 -0.1431
vn -0.0000 -0.0000 -1.0000
vn -0.9405 0.0165 -0.3394
vn 0.9898 -0.0213 -0.1408
vn 0.9546 -0.0252 -0.2968
vn -0.9836 0.0113 -0.1798
vn -0.9836 0.0107 0.1799
vn -0.6123 0.7808 0.1242
vn -0.6123 0.7808 -0.1242
vn 0.7474 -0.6590 0.0845
vn -0.0000 -0.9934 0.1150
vn -0.0000 -1.0000 -0.0000
vn 0.3659 -0.9280 0.0703
vn 0.9991 -0.0425 -0.0061
vn 0.8034 0.5953 0.0156
vn 0.8143 0.5804 -0.0000
vn 0.9976 -0.0687 -0.0000
vn 0.9714 -0.0232 0.2362
vn 0.9387 -0.3236 0.1187
vn 0.9895 0.0007 0.1442
vn 0.9528 0.2634 -0.1508
vn 0.7016 -0.7016 -0.1245
vn -0.0000 -0.9846 -0.1748
vn -0.0000 -0.9846 0.1748
vn 0.9564 0.2524 0.1471
vn -0.9745 0.2231 0.0253
vn 0.8972 0.4263 0.1153
vn 0.8972 0.4263 -0.1153
vn 0.9706 -0.0896 0.2233
vn 0.9740 -0.0883 -0.2088
vn 0.9975 0.0658 -0.0268
vn 0.9570 -0.2849 0.0548
vn -0.0000 -0.9784 0.2068
vn 0.9542 -0.2993 -0.0000
vn 0.7016 -0.7016 0.1245
vn -1.0000 -0.0000 -0.0000
vn 0.0188 0.9895 0.1431
vn 0.7008 0.7070 0.0953
vn 0.7898 0.6133 -0.0111
vn -0.0000 -0.0000 1.0000
vn 0.9546 -0.0252 0.2968
vn 0.9898 -0.0213 0.1408
vn -0.9405 0.0165 0.3394
vn -0.9836 0.0113 0.1798
vn -0.9836 0.0107 -0.1799
vn 0.7474 -0.6590 -0.0845
vn 0.3659 -0.9280 -0.0703
vn -0.0000 -0.9934 -0.1150
vn 0.9991 -0.0425 0.0061
vn 0.8034 0.5953 -0.0156
vn 0.9714 -0.0232 -0.2362
vn 0.9895 0.0007 -0.1442
vn 0.9387 -0.3236 -0.1187
vn 0.9528 0.2634 0.1508
vn 0.9564 0.2524 -0.1471
vn -0.9745 0.2231 -0.0253
vn 0.9706 -0.0896 -0.2233
vn 0.9740 -0.0883 0.2088
vn 0.9975 0.0658 0.0268
vn 0.9570 -0.2849 -0.0548
vn -0.0000 -0.9784 -0.2068
vt 0.750000 0.692500
vt 0.875000 0.692499
vt 0.875000 0.723558
vt 0.750000 0.723558
vt 0.500000 0.875000
vt 0.625000 0.875000
vt 0.625000 1.000000
vt 0.500000 1.000000
vt 0.000000 0.000000
vt 0.125000 0.692500
vt 0.250000 0.692499
vt 0.250000 0.723558
vt 0.125000 0.723558
vt 0.500000 0.093891
vt 0.625000 0.093891
vt 0.625000 0.125000
vt 0.500000 0.125000
vt 0.500000 0.024819
vt 0.625000 0.024819
vt 0.625000 0.026442
vt 0.500000 0.026442
vt 0.375000 0.875000
vt 0.375000 1.000000
vt 0.250000 0.725181
vt 0.125000 0.725181
vt 0.500000 0.000000
vt 0.625000 0.000000
vt 0.875000 0.725181
vt 0.750000 0.725181
vt 0.875000 0.750000
vt 0.750000 0.750000
vt 0.625000 0.024819
vt 0.625000 0.057501
vt 0.500000 0.057501
vt 0.125000 0.656109
vt 0.250000 0.656109
vt 0.750000 0.656109
vt 0.875000 0.656109
vt 0.750000 0.625000
vt 0.875000 0.625000
vt 0.125000 0.625000
vt 0.250000 0.625000
vt 0.250000 0.750000
vt 0.125000 0.750000
vt 0.375000 0.000000
vt 0.375000 0.024819
vt 0.375000 0.057501
vt 0.375000 0.093891
vt 0.375000 0.026442
vt 0.375000 0.125000
s 1
f 186/174/123 184/175/124 170/176/125 167/177/126
f 199/178/127 173/179/128 165/180/129 196/181/130
f 204/182/131 203/182/132 182/182/133 181/182/134
f 187/183/135 185/184/136 166/185/137 171/186/138
f 202/187/139 188/188/140 169/189/141 198/190/142
f 200/191/143 179/192/144 170/193/125 197/194/145
f 172/195/127 164/196/146 192/196/147 193/195/148
f 171/186/138 166/185/137 178/197/149 176/198/150
f 196/199/130 165/200/129 179/192/144 200/191/143
f 167/177/126 170/176/125 179/201/144 177/202/151
f 182/202/133 183/201/152 180/203/153 181/204/134
f 206/205/154 205/200/155 180/200/153 183/192/152
f 205/180/155 204/179/131 181/179/134 180/180/153
f 203/202/132 206/201/154 183/201/152 182/202/133
f 197/194/145 170/193/125 184/206/124 201/207/156
f 191/208/157 189/209/158 185/184/136 187/183/135
f 190/210/123 188/211/140 184/175/124 186/174/123
f 174/212/123 169/213/141 188/211/140 190/210/123
f 168/214/159 175/215/137 189/209/158 191/208/157
f 201/207/156 184/206/124 188/188/140 202/187/139
f 194/198/160 195/197/149 193/216/148 192/217/147
s 0
f 178/182/161 172/182/161 193/182/161 195/182/161
s 1
f 164/218/146 176/219/150 194/219/160 192/218/147
f 176/198/150 178/197/149 195/197/149 194/198/160
f 187/220/135 201/207/156 202/187/139 191/221/157
f 171/222/138 197/194/145 201/207/156 187/220/135
f 164/218/146 196/199/130 200/191/143 176/219/150
f 176/219/150 200/191/143 197/194/145 171/222/138
f 191/221/157 202/187/139 198/190/142 168/223/159
f 172/195/127 199/178/127 196/181/130 164/196/146
f 177/202/151 179/201/144 206/201/154 203/202/132
f 165/180/129 173/179/128 204/179/131 205/180/155
f 179/192/144 165/200/129 205/200/155 206/205/154
f 173/182/128 177/182/151 203/182/132 204/182/131
f 225/174/123 210/177/162 211/176/163 223/175/164
f 237/178/165 235/181/166 208/180/167 214/179/168
f 242/182/169 220/182/133 221/182/134 241/182/170
f 226/183/171 212/186/172 209/185/137 224/184/173
f 240/187/174 198/190/142 169/189/141 227/188/175
f 238/191/176 236/194/177 211/193/163 218/192/178
f 213/195/165 232/195/149 231/196/160 207/196/179
f 212/186/172 215/198/180 217/197/148 209/185/137
f 235/199/166 238/191/176 218/192/178 208/200/167
f 210/177/162 216/202/181 218/201/178 211/176/163
f 221/202/134 220/204/133 219/203/152 222/201/153
f 244/205/182 222/192/153 219/200/152 243/200/183
f 243/180/183 219/180/152 220/179/133 242/179/169
f 241/202/170 221/202/134 222/201/153 244/201/182
f 236/194/177 239/207/184 223/206/164 211/193/163
f 230/208/185 226/183/171 224/184/173 228/209/186
f 229/210/123 225/174/123 223/175/164 227/211/175
f 174/212/123 229/210/123 227/211/175 169/213/141
f 168/214/159 230/208/185 228/209/186 175/215/137
f 239/207/184 240/187/174 227/188/175 223/206/164
f 233/198/147 231/217/160 232/216/149 234/197/148
s 0
f 217/182/161 234/182/161 232/182/161 213/182/161
s 1
f 207/218/179 231/218/160 233/219/147 215/219/180
f 215/198/180 233/198/147 234/197/148 217/197/148
f 226/220/171 230/221/185 240/187/174 239/207/184
f 212/222/172 226/220/171 239/207/184 236/194/177
f 207/218/179 215/219/180 238/191/176 235/199/166
f 215/219/180 212/222/172 236/194/177 238/191/176
f 230/221/185 168/223/159 198/190/142 240/187/174
f 213/195/165 207/196/179 235/181/166 237/178/165
f 216/202/181 241/202/170 244/201/182 218/201/178
f 208/180/167 243/180/183 242/179/169 214/179/168
f 218/192/178 244/205/182 243/200/183 208/200/167
f 214/182/168 242/182/169 241/182/170 216/182/181
o Cube.001
v 2.902732 0.122491 -1.770186
v 2.898068 0.152233 -1.520436
v 3.036388 0.118436 -1.516953
v 2.881136 -0.247400 -1.517898
v 2.888165 -0.221327 -1.768003
v 3.021821 -0.225382 -1.514769
v 2.964363 0.141044 1.562117
v 2.826043 0.174841 1.558633
v 2.819014 0.148769 1.808738
v 2.949796 -0.202774 1.564301
v 2.804447 -0.195049 1.810922
v 2.809111 -0.224792 1.561172
v 1.184077 0.195049 -1.810922
v 1.038728 0.202774 -1.564301
v 1.179413 0.224792 -1.561172
v 1.024161 -0.141044 -1.562117
v 1.169510 -0.148769 -1.808738
v 1.162481 -0.174841 -1.558633
v 0.966703 0.225382 1.514769
v 1.100359 0.221327 1.768003
v 1.107388 0.247400 1.517898
v 1.090456 -0.152233 1.520436
v 1.085792 -0.122491 1.770186
v 0.952136 -0.118436 1.516953
v 1.123698 -0.162668 0.099344
v 0.985378 -0.128871 0.095860
v 2.859285 0.164407 0.137541
v 2.997605 0.130610 0.141024
v 1.140630 0.236966 0.096805
v 0.999945 0.214948 0.093676
v 2.842353 -0.235226 0.140079
v 2.983038 -0.213208 0.143208
v 1.001739 -0.134006 -0.603554
v 3.013966 0.125474 -0.558389
v 1.156991 0.231830 -0.602608
v 2.858713 -0.240362 -0.559335
v 1.140059 -0.167803 -0.600070
v 2.875645 0.159272 -0.561873
v 1.016306 0.209812 -0.605738
v 2.999398 -0.218344 -0.556206
v 1.131878 -0.165235 -0.250363
v 2.867465 0.161839 -0.212166
v 1.225140 0.203218 -0.250887
v 2.991218 -0.215776 -0.206499
v 0.993558 -0.131438 -0.253847
v 3.005785 0.128042 -0.208683
v 1.365825 0.225236 -0.247758
v 2.850533 -0.237794 -0.209628
v 1.101259 -0.155624 1.058618
v 2.771410 0.174213 1.095264
v 0.977506 0.221991 1.052950
v 2.960598 -0.206165 1.102482
v 0.962939 -0.121827 1.055134
v 2.909730 0.140416 1.098747
v 1.118191 0.244009 1.056079
v 2.819913 -0.228183 1.099353
v 0.965388 -0.122596 0.950413
v 2.977615 0.136884 0.995578
v 1.120641 0.243240 0.951358
v 2.822363 -0.228952 0.994632
v 1.103709 -0.156393 0.953897
v 2.839295 0.170682 0.992094
v 0.979955 0.221222 0.948229
v 2.963048 -0.206934 0.997761
vn -0.0423 -0.9991 0.0063
vn -0.9988 0.0422 -0.0237
vn -0.0234 0.0073 0.9997
vn 0.0423 0.9991 -0.0063
vn 0.9975 0.0520 -0.0475
vn 0.2385 0.9648 -0.1104
vn 0.1560 -0.9829 -0.0981
vn 0.2334 0.9664 0.1073
vn 0.1509 -0.9813 0.1197
vn -0.1509 0.9813 -0.1197
vn -0.2334 -0.9664 -0.1073
vn -0.1560 0.9829 0.0981
vn -0.2385 -0.9648 0.1104
vn -0.2374 -0.9714 0.0016
vn -0.0395 -0.9937 -0.1047
vn 0.8834 -0.0404 -0.4669
vn -0.8834 0.0404 0.4669
vn 0.8606 -0.0332 0.5082
vn -0.8606 0.0332 -0.5082
vn 0.0395 0.9937 0.1047
vn 0.2380 0.9708 -0.0294
vn -0.0447 -0.9921 0.1173
vn -0.1544 0.9880 -0.0109
vn 0.0447 0.9921 -0.1173
vn 0.1544 -0.9880 0.0109
vn 0.0234 -0.0073 -0.9997
vn 0.2374 0.9714 -0.0016
vn 0.9988 -0.0422 0.0237
vn -0.1561 0.9816 0.1101
vn -0.9077 0.3290 0.2604
vn -0.8944 0.3248 -0.3073
vn -0.1504 0.9798 -0.1317
vn 0.2328 0.9651 0.1201
vn 0.9463 0.0525 0.3191
vt 0.142458 0.700282
vt 0.357542 0.700282
vt 0.357542 0.732542
vt 0.142458 0.732542
vt 0.392458 0.165583
vt 0.607542 0.165583
vt 0.607542 0.232542
vt 0.392458 0.232542
vt 0.392458 0.767458
vt 0.607542 0.767458
vt 0.607542 0.982542
vt 0.392458 0.982542
vt 0.642458 0.700282
vt 0.857542 0.700282
vt 0.857542 0.732542
vt 0.642458 0.732542
vt 0.392458 0.700282
vt 0.607542 0.700282
vt 0.607542 0.732542
vt 0.392458 0.732542
vt 0.607542 0.482542
vt 0.625000 0.482542
vt 0.607542 0.500000
vt 0.357542 0.517458
vt 0.357542 0.500000
vt 0.375000 0.517458
vt 0.607542 0.750000
vt 0.625000 0.767458
vt 0.375000 0.732542
vt 0.357542 0.750000
vt 0.607542 0.250000
vt 0.625000 0.232542
vt 0.125000 0.517458
vt 0.142458 0.500000
vt 0.142458 0.517458
vt 0.607542 0.017458
vt 0.607542 0.000000
vt 0.625000 0.017458
vt 0.142458 0.750000
vt 0.125000 0.732542
vt 0.125000 0.700282
vt 0.607542 0.517458
vt 0.392458 0.517458
vt 0.392458 0.482542
vt 0.392458 0.000000
vt 0.392458 0.017458
vt 0.607542 0.267458
vt 0.392458 0.267458
vt 0.625000 0.982542
vt 0.625000 0.165583
vt 0.625000 0.267458
vt 0.357542 0.584417
vt 0.392458 0.584417
vt 0.357542 0.692967
vt 0.357542 0.633274
vt 0.392458 0.633274
vt 0.392458 0.692967
vt 0.625000 0.057033
vt 0.625000 0.116726
vt 0.607542 0.116726
vt 0.607542 0.057033
vt 0.642458 0.608845
vt 0.642458 0.633274
vt 0.607542 0.633274
vt 0.607542 0.608845
vt 0.142458 0.608845
vt 0.142458 0.633274
vt 0.125000 0.633274
vt 0.125000 0.608845
vt 0.392458 0.608845
vt 0.857542 0.608845
vt 0.857542 0.633274
vt 0.392458 0.057033
vt 0.392458 0.116726
vt 0.357542 0.608845
vt 0.142458 0.584417
vt 0.642458 0.517458
vt 0.857542 0.517458
vt 0.857542 0.584417
vt 0.642458 0.584417
vt 0.607542 0.584417
vt 0.125000 0.584417
vt 0.625000 0.141155
vt 0.607542 0.141155
vt 0.392458 0.141155
vt 0.607542 0.049718
vt 0.392458 0.049718
vt 0.625000 0.049718
vt 0.642458 0.692967
vt 0.607542 0.692967
vt 0.142458 0.692967
vt 0.125000 0.692967
vt 0.857542 0.692967
s 0
usemtl Material.001
f 293/224/187 300/225/187 256/226/187 266/227/187
f 277/228/188 283/229/188 258/230/188 260/231/188
f 255/232/189 253/233/189 264/234/189 267/235/189
f 294/236/190 299/237/190 265/238/190 252/239/190
f 296/240/191 298/241/191 251/242/191 254/243/191
f 245/244/192 246/245/192 247/246/192
f 248/247/193 249/248/193 250/249/193
f 251/250/194 252/251/194 253/233/194
f 254/252/195 255/253/195 256/226/195
f 257/254/196 258/230/196 259/255/196
f 260/256/197 261/257/197 262/258/197
f 263/259/198 264/260/198 265/261/198
f 266/227/199 267/262/199 268/263/199
f 293/224/200 266/227/200 268/263/200 297/264/200
f 248/247/201 262/258/201 261/257/201 249/248/201
f 247/265/202 250/266/202 249/267/202 245/244/202
f 267/268/203 264/260/203 263/259/203 268/269/203
f 253/233/204 255/232/204 254/243/204 251/242/204
f 257/270/205 261/271/205 260/231/205 258/230/205
f 252/251/206 265/272/206 264/234/206 253/233/206
f 294/236/207 252/239/207 251/242/207 298/241/207
f 266/227/208 256/226/208 255/253/208 267/262/208
f 279/273/209 259/255/209 258/230/209 283/229/209
f 259/274/210 246/245/210 245/244/210 257/270/210
f 280/275/211 248/247/211 250/266/211 284/276/211
f 261/271/212 257/270/212 245/244/212 249/267/212
f 304/277/211 275/278/211 276/279/211 308/280/211
f 303/281/209 273/282/209 274/283/209 307/284/209
f 286/285/213 271/286/213 272/287/213 290/288/213
f 285/289/200 269/290/200 270/291/200 289/292/200
f 288/293/214 290/288/214 272/287/214 276/279/214
f 286/285/190 291/294/190 273/295/190 271/286/190
f 301/296/188 307/284/188 274/283/188 270/297/188
f 285/289/187 292/298/187 275/278/187 269/290/187
f 262/258/187 248/247/187 280/275/187 281/299/187
f 246/300/190 259/301/190 279/302/190 282/303/190
f 250/266/214 247/265/214 278/304/214 284/276/214
f 262/258/200 281/299/200 277/305/200 260/256/200
f 246/300/213 282/303/213 278/304/213 247/265/213
f 292/298/211 280/275/211 284/276/211 288/293/211
f 291/306/215 279/273/215 283/229/215 287/307/215
f 289/308/216 287/307/216 283/229/216 277/228/216
f 270/297/217 274/283/217 287/307/217 289/308/217
f 273/282/218 291/306/218 287/307/218 274/283/218
f 275/278/211 292/298/211 288/293/211 276/279/211
f 281/299/187 280/275/187 292/298/187 285/289/187
f 282/303/190 279/302/190 291/294/190 286/285/190
f 284/276/214 278/304/214 290/288/214 288/293/214
f 281/299/200 285/289/200 289/292/200 277/305/200
f 282/303/213 286/285/213 290/288/213 278/304/213
f 268/269/188 263/259/188 295/309/188 297/310/188
f 265/261/209 299/311/209 295/309/209 263/259/209
f 256/226/211 300/225/211 296/240/211 254/243/211
f 306/312/219 294/236/219 298/241/219 302/313/219
f 305/314/200 293/224/200 297/264/200 301/315/200
f 308/280/220 302/313/220 298/241/220 296/240/220
f 306/312/190 303/316/190 299/237/190 294/236/190
f 305/314/187 304/277/187 300/225/187 293/224/187
f 269/290/187 275/278/187 304/277/187 305/314/187
f 271/286/190 273/295/190 303/316/190 306/312/190
f 276/279/214 272/287/214 302/313/214 308/280/214
f 269/290/200 305/314/200 301/315/200 270/291/200
f 271/286/213 306/312/213 302/313/213 272/287/213
f 297/310/188 295/309/188 307/284/188 301/296/188
f 299/311/209 303/281/209 307/284/209 295/309/209
f 300/225/211 304/277/211 308/280/211 296/240/211
o Cube.002
v -1.142492 0.164300 -1.800417
v -1.141081 0.196509 -1.550933
v -1.000719 0.172330 -1.551732
v -1.130311 -0.203289 -1.544165
v -1.133225 -0.179659 -1.794594
v -0.991453 -0.171630 -1.545910
v -0.974076 0.225180 1.527694
v -1.114439 0.249360 1.528493
v -1.111524 0.225730 1.778922
v -0.964810 -0.118779 1.533517
v -1.102257 -0.118229 1.784745
v -1.103668 -0.150438 1.535261
v -2.862471 0.118229 -1.784745
v -2.999919 0.118779 -1.533517
v -2.861061 0.150438 -1.535261
v -2.990653 -0.225180 -1.527694
v -2.853205 -0.225730 -1.778922
v -2.850290 -0.249360 -1.528493
v -2.973276 0.171630 1.545910
v -2.831503 0.179659 1.794594
v -2.834418 0.203289 1.544165
v -2.823647 -0.196509 1.550933
v -2.822237 -0.164300 1.800417
v -2.964010 -0.172330 1.551732
v -2.830791 -0.210681 0.725209
v -2.971154 -0.186501 0.726008
v -1.301128 0.235188 0.702769
v -1.160766 0.211009 0.701969
v -2.841562 0.189117 0.718440
v -2.980420 0.157458 0.720185
v -1.110812 -0.164610 0.709537
v -0.971954 -0.132951 0.707792
v -2.972460 -0.189093 0.574997
v -0.982527 0.208417 0.550958
v -2.740084 0.186525 0.567430
v -1.112119 -0.167201 0.558526
v -2.832098 -0.213272 0.574198
v -1.122889 0.232596 0.551758
v -2.878942 0.154867 0.569174
v -0.973260 -0.135543 0.556781
v -2.829008 -0.207142 0.931363
v -1.119799 0.238726 0.908922
v -2.978637 0.160996 0.926339
v -0.970170 -0.129413 0.913946
v -2.969370 -0.182963 0.932162
v -0.979437 0.214547 0.908123
v -2.839778 0.192655 0.924594
v -1.109028 -0.161071 0.915691
v -2.985915 -0.215782 -0.980085
v -0.995981 0.181728 -1.004124
v -2.856323 0.159836 -0.987653
v -1.125573 -0.193890 -0.996556
v -2.845552 -0.239961 -0.980884
v -1.136343 0.205907 -1.003325
v -2.995181 0.128178 -0.985908
v -0.986715 -0.162232 -0.998301
v -1.628929 -0.216644 -1.539622
v -1.631843 -0.193015 -1.790051
v -1.613056 0.236004 1.533036
v -1.610142 0.212374 1.783465
v -1.602286 -0.163794 1.539804
v -1.600875 -0.131585 1.789288
v -1.639699 0.183153 -1.546390
v -1.641110 0.150944 -1.795874
v -1.620200 0.221832 0.707312
v -1.609430 -0.177965 0.714080
v -1.610736 -0.180557 0.563069
v -1.621507 0.219241 0.556301
v -1.618417 0.225370 0.913466
v -1.607646 -0.174427 0.920234
v -1.634961 0.192552 -0.998781
v -1.624191 -0.207246 -0.992013
v -1.383974 -0.186376 -1.792309
v -1.362272 0.219014 1.781207
v -1.354416 -0.157155 1.537546
v -1.391830 0.189793 -1.363404
v -1.551876 0.228472 0.705053
v -1.373637 0.225880 0.554042
v -1.370547 0.232010 0.911207
v -1.387092 0.199191 -1.001040
v -1.381059 -0.210005 -1.541880
v -1.365187 0.242643 1.530778
v -1.353006 -0.124946 1.787030
v -1.393240 0.157584 -1.612888
v -1.361560 -0.171326 0.711822
v -1.362867 -0.173918 0.560811
v -1.359777 -0.167788 0.917975
v -1.376321 -0.200607 -0.994272
vn 0.0269 -0.9995 0.0169
vn -0.9996 -0.0268 0.0091
vn 0.0087 0.0172 0.9998
vn -0.0269 0.9995 -0.0169
vn 0.9996 0.0268 -0.0091
vn 0.1677 0.9776 -0.1272
vn 0.2202 -0.9709 -0.0942
vn 0.1696 0.9813 0.0906
vn 0.2221 -0.9672 0.1236
vn -0.2221 0.9672 -0.1236
vn -0.1696 -0.9813 -0.0906
vn -0.2202 0.9709 0.0942
vn -0.1677 -0.9776 0.1272
vn -0.1696 -0.9853 0.0184
vn 0.0258 -0.9952 -0.0942
vn 0.8684 0.0150 -0.4956
vn -0.8684 -0.0150 0.4956
vn 0.8769 0.0317 0.4797
vn -0.8769 -0.0317 -0.4797
vn -0.0258 0.9952 0.0942
vn 0.1696 0.9853 -0.0184
vn 0.0277 -0.9914 0.1278
vn -0.2224 0.9748 -0.0148
vn -0.1209 0.9846 -0.1264
vn 0.2224 -0.9748 0.0148
vn -0.3504 0.2203 -0.9103
vn 0.1679 0.9689 0.1816
vn 0.8374 0.2494 0.4863
vn -0.0282 0.9993 -0.0265
vn -0.0281 0.9995 -0.0160
vn -0.2212 0.9611 -0.1651
vn -0.9428 0.1101 -0.3146
vn 0.1666 0.9724 -0.1632
vn 0.8838 0.2478 -0.3968
vn -0.2223 0.9750 -0.0001
vn -0.9917 0.1221 0.0393
vn -0.0193 0.9996 -0.0204
vn -0.0419 0.9991 0.0015
vn -0.0425 0.9982 -0.0420
vn -0.0087 -0.0172 -0.9998
vn -0.0277 0.9914 -0.1278
vn -0.0272 0.9984 -0.0492
vn -0.0267 0.9996 0.0063
vn -0.0344 0.9992 -0.0203
vn 0.3269 0.2395 -0.9142
vn 0.0681 0.9894 -0.1281
vt 0.326186 0.689268
vt 0.357542 0.689268
vt 0.357542 0.732542
vt 0.326186 0.732542
vt 0.392458 0.194294
vt 0.607542 0.194294
vt 0.607542 0.232542
vt 0.392458 0.232542
vt 0.392458 0.829810
vt 0.607542 0.829810
vt 0.607542 0.982542
vt 0.392458 0.982542
vt 0.704811 0.689268
vt 0.857542 0.689268
vt 0.857542 0.732542
vt 0.704811 0.732542
vt 0.392458 0.689268
vt 0.607542 0.689268
vt 0.607542 0.732542
vt 0.392458 0.732542
vt 0.607542 0.482542
vt 0.625000 0.482542
vt 0.607542 0.500000
vt 0.357542 0.517458
vt 0.357542 0.500000
vt 0.375000 0.517458
vt 0.607542 0.750000
vt 0.625000 0.767458
vt 0.607542 0.767458
vt 0.375000 0.732542
vt 0.357542 0.750000
vt 0.607542 0.250000
vt 0.625000 0.232542
vt 0.125000 0.517458
vt 0.142458 0.500000
vt 0.142458 0.517458
vt 0.607542 0.017458
vt 0.607542 0.000000
vt 0.625000 0.017458
vt 0.142458 0.732542
vt 0.142458 0.750000
vt 0.125000 0.732542
vt 0.142458 0.689268
vt 0.125000 0.689268
vt 0.295190 0.517458
vt 0.295190 0.500000
vt 0.607542 0.517458
vt 0.392458 0.517458
vt 0.392458 0.482542
vt 0.392458 0.000000
vt 0.392458 0.017458
vt 0.392458 0.767458
vt 0.607542 0.267458
vt 0.392458 0.267458
vt 0.625000 0.829811
vt 0.625000 0.982542
vt 0.642458 0.689268
vt 0.642458 0.732542
vt 0.326186 0.750000
vt 0.625000 0.194294
vt 0.625000 0.451186
vt 0.607542 0.451186
vt 0.357542 0.555706
vt 0.392458 0.555706
vt 0.392458 0.451186
vt 0.357542 0.674869
vt 0.392458 0.674869
vt 0.625000 0.060732
vt 0.625000 0.075131
vt 0.607542 0.075131
vt 0.607542 0.060732
vt 0.642458 0.664321
vt 0.642458 0.674869
vt 0.607542 0.674869
vt 0.607542 0.664321
vt 0.142458 0.664321
vt 0.142458 0.674869
vt 0.125000 0.674869
vt 0.125000 0.664321
vt 0.392458 0.664321
vt 0.704810 0.664321
vt 0.857542 0.664321
vt 0.857542 0.674869
vt 0.704811 0.674869
vt 0.392458 0.060732
vt 0.392458 0.075131
vt 0.326186 0.664321
vt 0.357542 0.664321
vt 0.326186 0.674869
vt 0.326186 0.555706
vt 0.704810 0.555706
vt 0.857542 0.555706
vt 0.607542 0.555706
vt 0.142458 0.555706
vt 0.125000 0.555706
vt 0.642458 0.555706
vt 0.625000 0.085679
vt 0.607542 0.085679
vt 0.392458 0.085679
vt 0.642458 0.517458
vt 0.704811 0.517458
vt 0.857542 0.517458
vt 0.326186 0.517458
vt 0.295190 0.555706
vt 0.673814 0.517458
vt 0.673814 0.555706
vt 0.295190 0.674869
vt 0.295190 0.689268
vt 0.673814 0.674869
vt 0.673814 0.689268
vt 0.673814 0.664321
vt 0.295190 0.664321
vt 0.607542 0.420190
vt 0.392458 0.420190
vt 0.625000 0.267458
vt 0.625000 0.420190
vt 0.295190 0.732542
vt 0.295190 0.750000
vt 0.625000 0.798814
vt 0.607542 0.798814
vt 0.326186 0.500000
vt 0.673814 0.732542
vt 0.392458 0.798814
s 0
usemtl Material.002
f 395/317/221 356/318/221 320/319/221 383/320/221
f 357/321/222 363/322/222 322/323/222 324/324/222
f 370/325/223 368/326/223 328/327/223 331/328/223
f 377/329/224 355/330/224 329/331/224 367/332/224
f 352/333/225 354/334/225 315/335/225 318/336/225
f 309/337/226 310/338/226 311/339/226
f 312/340/227 313/341/227 314/342/227
f 315/343/228 316/344/228 317/345/228
f 318/346/229 319/347/229 320/319/229
f 321/348/230 322/323/230 323/349/230
f 324/350/231 325/351/231 326/352/231
f 327/353/232 328/354/232 329/355/232
f 330/356/233 331/357/233 332/358/233
f 349/359/234 330/356/234 332/358/234 353/360/234
f 365/361/235 326/352/235 325/351/235 366/362/235
f 311/363/236 314/364/236 313/365/236 309/337/236
f 331/366/237 328/354/237 327/353/237 332/367/237
f 317/345/238 319/368/238 318/336/238 315/335/238
f 321/369/239 325/370/239 324/324/239 322/323/239
f 367/371/240 329/372/240 328/327/240 368/326/240
f 350/373/241 316/374/241 315/335/241 354/334/241
f 383/320/242 320/319/242 319/347/242 391/375/242
f 359/376/243 323/349/243 322/323/243 363/322/243
f 384/377/244 310/338/244 309/337/244 392/378/244
f 360/379/245 312/340/245 314/364/245 364/380/245
f 381/381/246 392/378/246 309/337/246 313/365/246
f 356/318/245 339/382/245 340/383/245 352/333/245
f 355/384/243 337/385/243 338/386/243 351/387/243
f 346/388/247 335/389/247 336/390/247 342/391/247
f 345/392/234 333/393/234 334/394/234 341/395/234
f 348/396/248 342/391/248 336/390/248 340/383/248
f 376/397/249 343/398/249 337/399/249 373/400/249
f 353/401/222 351/387/222 338/386/222 334/402/222
f 394/403/221 344/404/221 339/382/221 393/405/221
f 396/406/221 360/379/221 344/404/221 394/403/221
f 379/407/250 359/408/250 343/398/250 376/397/250
f 364/380/225 358/409/225 342/391/225 348/396/225
f 361/410/234 345/392/234 341/395/234 357/411/234
f 362/412/241 346/388/241 342/391/241 358/409/241
f 339/382/245 344/404/245 348/396/245 340/383/245
f 337/385/251 343/413/251 347/414/251 338/386/251
f 334/402/252 338/386/252 347/414/252 341/415/252
f 332/367/222 327/353/222 351/387/222 353/401/222
f 329/355/243 355/384/243 351/387/243 327/353/243
f 320/319/245 356/318/245 352/333/245 318/336/245
f 335/389/253 350/373/253 354/334/253 336/390/253
f 333/393/234 349/359/234 353/360/234 334/394/234
f 340/383/254 336/390/254 354/334/254 352/333/254
f 373/400/224 337/399/224 355/330/224 377/329/224
f 393/405/221 339/382/221 356/318/221 395/317/221
f 310/416/241 362/412/241 358/409/241 311/363/241
f 326/352/234 361/410/234 357/411/234 324/350/234
f 314/364/225 311/363/225 358/409/225 364/380/225
f 371/417/224 323/418/224 359/408/224 379/407/224
f 389/419/221 312/340/221 360/379/221 396/406/221
f 344/404/245 360/379/245 364/380/245 348/396/245
f 343/413/255 359/376/255 363/322/255 347/414/255
f 341/415/256 347/414/256 363/322/256 357/321/256
f 326/352/221 365/361/221 380/420/221 361/410/221
f 384/421/257 371/417/257 379/407/257 388/422/257
f 333/393/221 374/423/221 378/424/221 349/359/221
f 385/425/258 373/400/258 377/329/258 387/426/258
f 388/422/224 379/407/224 376/397/224 386/427/224
f 361/410/221 380/420/221 375/428/221 345/392/221
f 345/392/221 375/428/221 374/423/221 333/393/221
f 386/427/259 376/397/259 373/400/259 385/425/259
f 325/370/260 321/369/260 372/429/260 366/430/260
f 323/431/261 371/432/261 372/429/261 321/369/261
f 330/356/242 369/433/242 370/434/242 331/357/242
f 390/435/240 367/371/240 368/326/240 382/436/240
f 389/419/235 365/361/235 366/362/235 381/437/235
f 387/426/224 377/329/224 367/332/224 390/438/224
f 391/439/223 382/436/223 368/326/223 370/325/223
f 349/359/221 378/424/221 369/433/221 330/356/221
f 319/368/223 317/345/223 382/436/223 391/439/223
f 350/373/224 387/426/224 390/438/224 316/374/224
f 312/340/235 389/419/235 381/437/235 313/341/235
f 316/344/240 390/435/240 382/436/240 317/345/240
f 346/388/262 386/427/262 385/425/262 335/389/262
f 362/412/224 388/422/224 386/427/224 346/388/224
f 335/389/263 385/425/263 387/426/263 350/373/263
f 310/416/264 384/421/264 388/422/264 362/412/264
f 365/361/221 389/419/221 396/406/221 380/420/221
f 374/423/221 393/405/221 395/317/221 378/424/221
f 380/420/221 396/406/221 394/403/221 375/428/221
f 375/428/221 394/403/221 393/405/221 374/423/221
f 366/430/265 372/429/265 392/378/265 381/381/265
f 371/432/266 384/377/266 392/378/266 372/429/266
f 369/433/242 383/320/242 391/375/242 370/434/242
f 378/424/221 395/317/221 383/320/221 369/433/221
