# Blender 4.4.0
# www.blender.org
mtllib Salmon.mtl
o Cube
v 0.770296 -0.091333 0.453705
v 0.770296 0.346732 0.449332
v 0.770296 -0.098512 -0.786748
v 0.770296 0.341989 -0.786748
v 0.000000 -0.095446 -1.000000
v 0.000000 -0.095446 1.114779
v 0.000000 0.346732 -1.000000
v 0.000000 0.345799 1.138190
v 0.000000 -1.000000 -0.001575
v 0.000000 1.000000 0.373955
v 0.000000 1.000000 -0.786748
v 0.000000 -1.000000 -0.786748
v 0.560296 1.000000 -0.790000
v 0.770296 0.790000 -0.790000
v 0.560296 0.790000 -1.000000
v 0.560296 -0.790000 -1.000000
v 0.770296 -0.790000 -0.790000
v 0.560296 -1.000000 -0.790000
v 0.560296 0.870299 0.822744
v 0.560296 0.660299 1.093385
v 0.770296 0.660299 0.854248
v 0.770296 -0.790000 0.491231
v 0.560296 -0.790000 0.663480
v 0.560296 -1.000000 0.449288
v 0.560296 -0.095446 -1.000000
v 0.770296 -0.098520 -0.790000
v 0.770296 -0.095446 0.889390
v 0.560296 -0.095446 1.114779
v 0.560296 0.346732 -1.000000
v 0.770296 0.341990 -0.790000
v 0.770296 0.345799 0.887480
v 0.560296 0.345799 1.138190
v 0.770296 0.790000 0.428959
v 0.560296 1.000000 0.400207
v 0.560296 -1.000000 -0.061118
v 0.770296 -0.790000 0.271615
v 0.770296 -0.790000 -0.786748
v 0.560296 -1.000000 -0.786748
v 0.770296 0.790000 -0.786748
v 0.560296 1.000000 -0.786748
v 0.000000 -0.790000 -1.000000
v 0.000000 -1.000000 -0.790000
v 0.000000 0.660299 1.093385
v 0.000000 0.870299 0.822744
v 0.000000 -1.000000 0.449288
v 0.000000 -0.790000 0.663480
v 0.000000 1.000000 -0.790000
v 0.000000 0.790000 -1.000000
v 0.280148 -1.000000 0.449288
v 0.280148 -0.790000 0.663480
v 0.280148 1.000000 -0.790000
v 0.280148 0.790000 -1.000000
v 0.280148 -1.000000 -0.790000
v 0.280148 -0.790000 -1.000000
v 0.280148 0.870299 0.822744
v 0.280148 0.660299 1.093385
v 0.280148 1.000000 -0.786748
v 0.280148 0.346732 -1.000000
v 0.280148 -1.000000 -0.786748
v 0.280148 -0.095446 -1.000000
v 0.280148 1.000000 0.373955
v 0.280148 0.345799 1.138190
v 0.280148 -0.095446 1.114779
v 0.280148 -1.000000 -0.030899
v 0.000000 0.690121 -1.311463
v 0.000000 0.637911 -1.446740
v 0.000000 -0.386624 -1.446740
v 0.000000 -0.438835 -1.311463
v 0.280148 0.637911 -1.446740
v 0.280148 0.690121 -1.311463
v 0.280148 -0.438835 -1.311463
v 0.280148 -0.386624 -1.446740
v 1.473287 -0.150304 -0.786748
v 1.558481 -0.150304 -0.682308
v 1.558481 0.009542 -0.682308
v 1.473287 0.046721 -0.786748
v 1.511760 -0.150304 -0.454518
v 1.081622 -0.101488 0.124775
v 1.081622 0.208691 0.124775
v 1.511760 0.009542 -0.454518
v 0.770296 0.345912 -0.168708
v 0.000000 1.000000 -0.275845
v 0.560296 1.000000 -0.393374
v 0.770296 0.790000 -0.178894
v 0.280148 1.000000 -0.275845
v 0.000000 1.238380 -0.003024
v 0.280148 1.238380 -0.003024
v 0.000000 1.291117 -0.300290
v 0.000000 1.221391 -0.358394
v 0.280148 1.221391 -0.358394
v 0.280148 1.291117 -0.300290
v -0.770296 -0.091333 0.453705
v -0.770296 0.346732 0.449332
v -0.770296 -0.098512 -0.786748
v -0.770296 0.341989 -0.786748
v -0.560296 1.000000 -0.790000
v -0.770296 0.790000 -0.790000
v -0.560296 0.790000 -1.000000
v -0.560296 -0.790000 -1.000000
v -0.770296 -0.790000 -0.790000
v -0.560296 -1.000000 -0.790000
v -0.560296 0.870299 0.822744
v -0.560296 0.660299 1.093385
v -0.770296 0.660299 0.854248
v -0.770296 -0.790000 0.491231
v -0.560296 -0.790000 0.663480
v -0.560296 -1.000000 0.449288
v -0.560296 -0.095446 -1.000000
v -0.770296 -0.098520 -0.790000
v -0.770296 -0.095446 0.889390
v -0.560296 -0.095446 1.114779
v -0.560296 0.346732 -1.000000
v -0.770296 0.341990 -0.790000
v -0.770296 0.345799 0.887480
v -0.560296 0.345799 1.138190
v -0.770296 0.790000 0.428959
v -0.560296 1.000000 0.400207
v -0.560296 -1.000000 -0.061118
v -0.770296 -0.790000 0.271615
v -0.770296 -0.790000 -0.786748
v -0.560296 -1.000000 -0.786748
v -0.770296 0.790000 -0.786748
v -0.560296 1.000000 -0.786748
v -0.280148 -1.000000 0.449288
v -0.280148 -0.790000 0.663480
v -0.280148 1.000000 -0.790000
v -0.280148 0.790000 -1.000000
v -0.280148 -1.000000 -0.790000
v -0.280148 -0.790000 -1.000000
v -0.280148 0.870299 0.822744
v -0.280148 0.660299 1.093385
v -0.280148 1.000000 -0.786748
v -0.280148 0.346732 -1.000000
v -0.280148 -1.000000 -0.786748
v -0.280148 -0.095446 -1.000000
v -0.280148 1.000000 0.373955
v -0.280148 0.345799 1.138190
v -0.280148 -0.095446 1.114779
v -0.280148 -1.000000 -0.030899
v -0.280148 0.637911 -1.446740
v -0.280148 0.690121 -1.311463
v -0.280148 -0.438835 -1.311463
v -0.280148 -0.386624 -1.446740
v -1.473287 -0.150304 -0.786748
v -1.558481 -0.150304 -0.682308
v -1.558481 0.009542 -0.682308
v -1.473287 0.046721 -0.786748
v -1.511760 -0.150304 -0.454518
v -1.081622 -0.101488 0.124775
v -1.081622 0.208691 0.124775
v -1.511760 0.009542 -0.454518
v -0.770296 0.345912 -0.168708
v -0.560296 1.000000 -0.393374
v -0.770296 0.790000 -0.178894
v -0.280148 1.000000 -0.275845
v -0.280148 1.238380 -0.003024
v -0.280148 1.221391 -0.358394
v -0.280148 1.291117 -0.300290
vn 0.9239 -0.3827 -0.0000
vn 0.9747 -0.1256 0.1850
vn 0.8973 -0.1456 0.4168
vn 0.8575 -0.4253 0.2895
vn -0.0000 0.0442 0.9990
vn -0.0000 0.5023 0.8647
vn 0.9239 -0.0000 -0.3827
vn 0.8756 0.3416 -0.3416
vn 0.9239 0.3827 -0.0000
vn 0.9450 0.2546 -0.2054
vn 0.0880 0.9575 0.2747
vn -0.0000 0.9120 0.4101
vn -0.0000 0.8913 0.4534
vn -0.0034 0.8904 0.4552
vn 0.8988 -0.3049 -0.3151
vn -0.0000 -0.3094 0.9509
vn 0.6662 0.6954 0.2695
vn -0.0000 0.9324 0.3614
vn -0.0000 -1.0000 -0.0000
vn 0.3827 -0.9239 -0.0000
vn -0.0000 -0.3827 -0.9239
vn 0.5447 -0.2390 -0.8038
vn 0.3827 -0.0000 -0.9239
vn 0.3416 -0.3416 -0.8756
vn 0.8756 -0.3416 -0.3416
vn -0.0000 -0.9239 -0.3827
vn 0.3416 -0.8756 -0.3416
vn 0.5447 0.2390 -0.8038
vn -0.0000 0.3827 -0.9239
vn 0.3416 0.3416 -0.8756
vn 0.8384 0.5451 0.0047
vn 0.9066 0.4160 0.0712
vn 0.9816 0.1228 0.1464
vn 0.9328 0.0184 0.3598
vn 0.3309 -0.8843 0.3294
vn -0.0000 -0.9258 0.3781
vn -0.0000 -0.6333 0.7739
vn 0.8759 0.3354 0.3468
vn 0.3416 0.8756 -0.3416
vn 0.3286 0.8473 0.4173
vn 0.3629 0.4431 0.8197
vn 0.3015 -0.5904 0.7487
vn 0.3653 -0.2709 0.8906
vn 0.3611 0.9228 0.1341
vn -0.0000 0.9239 -0.3827
vn 0.4049 0.0416 0.9134
vn 0.3827 0.9239 -0.0000
vn -0.0000 1.0000 -0.0000
vn 0.4862 0.5279 -0.6964
vn 0.3088 -0.6422 -0.7016
vn 0.7457 -0.6406 -0.1832
vn 0.6559 -0.6845 0.3180
vn 0.5248 -0.6987 0.4862
vn 0.7219 0.5525 0.4167
vn -0.0000 0.9329 -0.3601
vn 0.5992 -0.7790 0.1848
vn 0.5992 -0.4528 -0.6602
vn 0.5992 0.4528 -0.6602
vn 0.5992 0.7790 0.1848
vn -0.0000 -0.9329 -0.3601
vn 0.4001 0.8641 -0.3055
vn -0.0000 0.9730 0.2308
vn -0.0000 -0.9730 0.2308
vn -0.0000 -0.5657 -0.8246
vn -0.0000 0.5657 -0.8246
vn -1.0000 -0.0000 -0.0000
vn 0.8691 0.4581 -0.1867
vn 0.8242 0.4867 0.2895
vn -0.0000 0.5704 -0.8214
vn -0.0000 0.1681 -0.9858
vn 0.6097 0.1333 -0.7814
vn 0.6097 0.7445 -0.2720
vn -0.0000 0.9393 -0.3431
vn -0.9239 -0.3827 -0.0000
vn -0.8575 -0.4253 0.2895
vn -0.8973 -0.1456 0.4168
vn -0.9747 -0.1256 0.1850
vn -0.9239 -0.0000 -0.3827
vn -0.9450 0.2546 -0.2054
vn -0.9239 0.3827 -0.0000
vn -0.8756 0.3416 -0.3416
vn -0.0880 0.9575 0.2747
vn 0.0034 0.8904 0.4552
vn -0.8988 -0.3049 -0.3151
vn -0.6662 0.6954 0.2695
vn -0.3827 -0.9239 -0.0000
vn -0.3416 -0.3416 -0.8756
vn -0.3827 -0.0000 -0.9239
vn -0.5447 -0.2390 -0.8038
vn -0.8756 -0.3416 -0.3416
vn -0.3416 -0.8756 -0.3416
vn -0.5447 0.2390 -0.8038
vn -0.3416 0.3416 -0.8756
vn -0.8384 0.5451 0.0047
vn -0.9816 0.1228 0.1464
vn -0.9066 0.4160 0.0712
vn -0.9328 0.0184 0.3598
vn -0.3309 -0.8843 0.3294
vn -0.8759 0.3354 0.3468
vn -0.3416 0.8756 -0.3416
vn -0.3286 0.8473 0.4173
vn -0.3629 0.4431 0.8197
vn -0.3015 -0.5904 0.7487
vn -0.3653 -0.2709 0.8906
vn -0.3611 0.9228 0.1341
vn -0.4049 0.0416 0.9134
vn -0.3827 0.9239 -0.0000
vn -0.3088 -0.6422 -0.7016
vn -0.4862 0.5279 -0.6964
vn -0.5248 -0.6987 0.4862
vn -0.6559 -0.6845 0.3180
vn -0.7457 -0.6406 -0.1832
vn -0.7219 0.5525 0.4167
vn -0.5992 0.7790 0.1848
vn -0.5992 0.4528 -0.6602
vn -0.5992 -0.4528 -0.6602
vn -0.5992 -0.7790 0.1848
vn -0.4001 0.8641 -0.3055
vn -0.8691 0.4581 -0.1867
vn -0.8242 0.4867 0.2895
vn -0.6097 0.1333 -0.7814
vn -0.6097 0.7445 -0.2720
vt 0.237968 0.321074
vt 0.266949 0.209860
vt 0.336291 0.210515
vt 0.272922 0.321074
vt 0.486598 0.480247
vt 0.486598 0.429919
vt 0.531192 0.429919
vt 0.531192 0.480247
vt 0.069005 0.140884
vt 0.069005 0.069570
vt 0.069523 0.069570
vt 0.069523 0.140884
vt 0.791468 0.622211
vt 0.746874 0.622211
vt 0.746874 0.581190
vt 0.791468 0.581190
vt 0.069005 0.211004
vt 0.069523 0.211003
vt 0.486598 0.550250
vt 0.531192 0.550250
vt 0.948910 0.581190
vt 0.948910 0.625784
vt 0.908347 0.625784
vt 0.908347 0.581190
vt 0.081066 0.427304
vt 0.125658 0.427304
vt 0.125620 0.542700
vt 0.081026 0.547505
vt 0.069523 0.321074
vt 0.453171 0.283289
vt 0.453171 0.174646
vt 0.497764 0.174646
vt 0.497764 0.283289
vt 0.069005 0.321074
vt 0.081066 0.426786
vt 0.125658 0.426786
vt 0.453171 0.105479
vt 0.497764 0.105479
vt 0.453171 0.036143
vt 0.497764 0.036143
vt 0.167888 0.140260
vt 0.166267 0.069570
vt 0.263011 0.069570
vt 0.266253 0.140129
vt 0.335988 0.140278
vt 0.125593 0.623869
vt 0.081001 0.623869
vt 0.486598 0.657523
vt 0.531192 0.657523
vt 0.330698 0.090216
vt 0.098468 0.762191
vt 0.120134 0.728763
vt 0.145590 0.762191
vt 0.531192 0.289484
vt 0.497764 0.322333
vt 0.231049 0.711912
vt 0.271851 0.748078
vt 0.233313 0.745559
vt 0.158763 0.629085
vt 0.125328 0.656478
vt 0.036143 0.321074
vt 0.036143 0.210515
vt 0.442004 0.550250
vt 0.442004 0.657523
vt 0.408577 0.656310
vt 0.408577 0.548663
vt 0.258995 0.036143
vt 0.326245 0.056788
vt 0.080735 0.656478
vt 0.098468 0.806785
vt 0.145590 0.806785
vt 0.070083 0.354501
vt 0.069566 0.354501
vt 0.036143 0.140129
vt 0.275702 0.798498
vt 0.267404 0.868343
vt 0.231049 0.865967
vt 0.235326 0.795859
vt 0.036143 0.069570
vt 0.132691 0.036143
vt 0.266807 0.354501
vt 0.185572 0.354501
vt 0.069566 0.036143
vt 0.070083 0.036143
vt 0.453171 0.322333
vt 0.408577 0.322333
vt 0.408577 0.283289
vt 0.486598 0.394618
vt 0.531192 0.394618
vt 0.098468 0.851378
vt 0.098074 0.851378
vt 0.098074 0.806785
vt 0.408577 0.734784
vt 0.477301 0.729808
vt 0.439315 0.844753
vt 0.408577 0.846978
vt 0.603477 0.233361
vt 0.603477 0.036143
vt 0.715438 0.036459
vt 0.729000 0.053063
vt 0.721565 0.089291
vt 0.653042 0.181103
vt 0.603477 0.305646
vt 0.673110 0.309409
vt 0.671323 0.362586
vt 0.622050 0.359430
vt 0.098074 0.762191
vt 0.442004 0.394618
vt 0.442004 0.429919
vt 0.145590 0.851378
vt 0.036408 0.623869
vt 0.036143 0.656478
vt 0.036432 0.552169
vt 0.408577 0.105479
vt 0.408577 0.036143
vt 0.816497 0.360306
vt 0.816497 0.430692
vt 0.766925 0.485352
vt 0.745395 0.477041
vt 0.745395 0.313957
vt 0.766925 0.305646
vt 0.036473 0.426786
vt 0.036473 0.427304
vt 0.408577 0.174646
vt 0.836062 0.715226
vt 0.791468 0.700979
vt 0.836062 0.619029
vt 0.442004 0.480247
vt 0.836062 0.581190
vt 0.648071 0.889982
vt 0.603477 0.889982
vt 0.603477 0.833182
vt 0.648071 0.833182
vt 0.888782 0.305646
vt 0.933376 0.305646
vt 0.933376 0.358060
vt 0.888782 0.358060
vt 0.801285 0.196402
vt 0.801285 0.036143
vt 0.845879 0.036143
vt 0.845879 0.196402
vt 0.430361 0.919264
vt 0.430361 0.963857
vt 0.408577 0.963857
vt 0.408577 0.919264
vt 0.940038 0.153022
vt 0.940038 0.197614
vt 0.918164 0.197670
vt 0.918164 0.153078
vt 0.603477 0.706236
vt 0.603477 0.635851
vt 0.653056 0.581190
vt 0.674589 0.589501
vt 0.674589 0.752586
vt 0.653056 0.760897
vt 0.645392 0.490917
vt 0.670784 0.492543
vt 0.669736 0.508905
vt 0.638438 0.506900
vt 0.231049 0.546797
vt 0.276409 0.486664
vt 0.321577 0.426786
vt 0.328871 0.499408
vt 0.328871 0.613104
vt 0.318179 0.639627
vt 0.302039 0.638505
vt 0.673110 0.456239
vt 0.647718 0.454612
vt 0.036143 0.806785
vt 0.050389 0.762191
vt 0.036143 0.851378
vt 0.955230 0.036143
vt 0.955230 0.080736
vt 0.918164 0.080736
vt 0.918164 0.036143
vt 0.933376 0.460938
vt 0.888782 0.460938
vt 0.888782 0.430345
vt 0.933376 0.430345
vt 0.865499 0.904070
vt 0.865499 0.800649
vt 0.900740 0.787511
vt 0.911839 0.796759
vt 0.903444 0.844071
vt 0.933376 0.475175
vt 0.888782 0.475175
vt 0.746874 0.890946
vt 0.746874 0.787511
vt 0.784819 0.847518
vt 0.793214 0.894837
vt 0.782115 0.904086
s 1
usemtl Material
f 36/1/1 1/2/2 27/3/3 22/4/4
f 62/5/5 56/6/6 43/7/6 8/8/5
f 30/9/7 14/10/8 39/11/9 4/12/10
f 61/13/11 10/14/12 44/15/13 55/16/14
f 26/17/7 30/9/7 4/12/10 3/18/15
f 63/19/16 62/5/5 8/8/5 6/20/16
f 10/21/12 61/22/11 87/23/17 86/24/18
f 59/25/19 38/26/20 35/27/20 64/28/19
f 37/29/1 3/18/15 1/2/2 36/1/1
f 54/30/21 60/31/22 25/32/23 16/33/24
f 17/34/25 26/17/7 3/18/15 37/29/1
f 53/35/26 18/36/27 38/26/20 59/25/19
f 60/31/22 58/37/28 29/38/23 25/32/23
f 58/37/28 52/39/29 15/40/30 29/38/23
f 81/41/31 84/42/9 33/43/32 2/44/33
f 1/2/2 2/44/33 31/45/34 27/3/3
f 64/28/19 35/27/20 24/46/35 49/47/36
f 50/48/37 63/19/16 6/20/16 46/49/37
f 2/44/33 33/43/32 21/50/38 31/45/34
f 13/51/39 14/52/8 15/53/30
f 16/33/24 17/54/25 18/55/27
f 19/56/40 20/57/41 21/58/38
f 22/59/4 23/60/42 24/46/35
f 26/17/7 17/34/25 16/61/24 25/62/23
f 28/63/43 23/64/42 22/65/4 27/66/3
f 34/67/44 19/68/40 21/50/38 33/43/32
f 49/47/36 24/46/35 23/60/42 50/69/37
f 51/70/45 13/51/39 15/53/30 52/71/29
f 38/72/20 18/73/27 17/34/25 37/29/1
f 30/9/7 26/17/7 25/62/23 29/74/23
f 32/75/46 28/76/43 27/77/3 31/78/34
f 14/10/8 30/9/7 29/74/23 15/79/30
f 20/57/41 32/75/46 31/78/34 21/58/38
f 83/80/47 34/67/44 33/43/32 84/42/9
f 24/81/35 35/82/20 36/1/1 22/4/4
f 35/82/20 38/72/20 37/29/1 36/1/1
f 13/83/39 40/84/47 39/11/9 14/10/8
f 53/85/26 42/86/26 41/87/21 54/30/21
f 55/88/14 44/89/13 43/7/6 56/6/6
f 51/70/45 47/90/45 11/91/48 57/92/48
f 3/93/15 4/94/10 76/95/49 73/96/50
f 1/97/2 3/98/15 73/99/50 74/100/51 77/101/52 78/102/53
f 2/103/33 1/104/2 78/105/53 79/106/54
f 13/51/39 51/70/45 57/92/48 40/107/47
f 19/108/40 55/88/14 56/6/6 20/109/41
f 18/55/27 53/85/26 54/30/21 16/33/24
f 47/90/45 51/70/45 52/71/29 48/110/29
f 45/111/36 49/47/36 50/69/37 46/112/37
f 23/64/42 28/63/43 63/19/16 50/48/37
f 9/113/19 64/28/19 49/47/36 45/111/36
f 7/114/55 48/115/29 52/39/29 58/37/28
f 58/116/28 60/117/22 71/118/56 72/119/57 69/120/58 70/121/59
f 42/122/26 53/35/26 59/25/19 12/123/19
f 41/87/21 5/124/60 60/31/22 54/30/21
f 12/123/19 59/25/19 64/28/19 9/113/19
f 83/125/47 85/126/61 61/13/11 34/127/44
f 28/63/43 32/128/46 62/5/5 63/19/16
f 34/127/44 61/13/11 55/16/14 19/129/40
f 32/128/46 20/109/41 56/6/6 62/5/5
f 7/130/55 58/131/28 70/132/59 65/133/62
f 60/134/22 5/135/60 68/136/63 71/137/56
f 67/138/64 66/139/65 69/140/58 72/141/57
f 69/142/58 66/143/65 65/144/62 70/145/59
f 67/146/64 72/147/57 71/148/56 68/149/63
f 5/150/66 7/151/66 65/152/66 66/153/66 67/154/66 68/155/66
f 75/156/67 74/157/51 73/158/50 76/159/49
f 4/160/10 81/161/31 2/162/33 79/163/54 80/164/68 75/165/67 76/166/49
f 79/106/54 78/105/53 77/167/52 80/168/68
f 74/157/51 75/156/67 80/168/68 77/167/52
f 40/107/47 57/92/48 85/169/61 83/170/47
f 40/84/47 83/80/47 84/42/9 39/11/9
f 4/12/10 39/11/9 84/42/9 81/41/31
f 57/92/48 11/91/48 82/171/69 85/169/61
f 85/172/61 82/173/69 89/174/70 90/175/71
f 91/176/72 88/177/73 86/178/18 87/179/17
f 61/180/11 85/181/61 90/182/71 91/183/72 87/184/17
f 88/177/73 91/176/72 90/185/71 89/186/70
s 0
f 82/187/66 10/188/66 86/189/66 88/190/66 89/191/66
s 1
f 119/1/74 105/4/75 110/3/76 92/2/77
f 137/5/5 8/8/5 43/7/6 131/6/6
f 113/9/78 95/12/79 122/11/80 97/10/81
f 136/13/82 130/16/83 44/15/13 10/14/12
f 109/17/78 94/18/84 95/12/79 113/9/78
f 138/19/16 6/20/16 8/8/5 137/5/5
f 10/21/12 86/24/18 156/23/85 136/22/82
f 134/25/19 139/28/19 118/27/86 121/26/86
f 120/29/74 119/1/74 92/2/77 94/18/84
f 129/30/21 99/33/87 108/32/88 135/31/89
f 100/34/90 120/29/74 94/18/84 109/17/78
f 128/35/26 134/25/19 121/26/86 101/36/91
f 135/31/89 108/32/88 112/38/88 133/37/92
f 133/37/92 112/38/88 98/40/93 127/39/29
f 152/41/94 93/44/95 116/43/96 154/42/80
f 92/2/77 110/3/76 114/45/97 93/44/95
f 139/28/19 124/47/36 107/46/98 118/27/86
f 125/48/37 46/49/37 6/20/16 138/19/16
f 93/44/95 114/45/97 104/50/99 116/43/96
f 96/51/100 98/53/93 97/52/81
f 99/33/87 101/55/91 100/54/90
f 102/56/101 104/58/99 103/57/102
f 105/59/75 107/46/98 106/60/103
f 109/17/78 108/62/88 99/61/87 100/34/90
f 111/63/104 110/66/76 105/65/75 106/64/103
f 117/67/105 116/43/96 104/50/99 102/68/101
f 124/47/36 125/69/37 106/60/103 107/46/98
f 126/70/45 127/71/29 98/53/93 96/51/100
f 121/72/86 120/29/74 100/34/90 101/73/91
f 113/9/78 112/74/88 108/62/88 109/17/78
f 115/75/106 114/78/97 110/77/76 111/76/104
f 97/10/81 98/79/93 112/74/88 113/9/78
f 103/57/102 104/58/99 114/78/97 115/75/106
f 153/80/107 154/42/80 116/43/96 117/67/105
f 107/81/98 105/4/75 119/1/74 118/82/86
f 118/82/86 119/1/74 120/29/74 121/72/86
f 96/83/100 97/10/81 122/11/80 123/84/107
f 128/85/26 129/30/21 41/87/21 42/86/26
f 130/88/83 131/6/6 43/7/6 44/89/13
f 126/70/45 132/92/48 11/91/48 47/90/45
f 94/93/84 144/96/108 147/95/109 95/94/79
f 92/97/77 149/102/110 148/101/111 145/100/112 144/99/108 94/98/84
f 93/103/95 150/106/113 149/105/110 92/104/77
f 96/51/100 123/107/107 132/92/48 126/70/45
f 102/108/101 103/109/102 131/6/6 130/88/83
f 101/55/91 99/33/87 129/30/21 128/85/26
f 47/90/45 48/110/29 127/71/29 126/70/45
f 45/111/36 46/112/37 125/69/37 124/47/36
f 106/64/103 125/48/37 138/19/16 111/63/104
f 9/113/19 45/111/36 124/47/36 139/28/19
f 7/114/55 133/37/92 127/39/29 48/115/29
f 133/116/92 141/121/114 140/120/115 143/119/116 142/118/117 135/117/89
f 42/122/26 12/123/19 134/25/19 128/35/26
f 41/87/21 129/30/21 135/31/89 5/124/60
f 12/123/19 9/113/19 139/28/19 134/25/19
f 153/125/107 117/127/105 136/13/82 155/126/118
f 111/63/104 138/19/16 137/5/5 115/128/106
f 117/127/105 102/129/101 130/16/83 136/13/82
f 115/128/106 137/5/5 131/6/6 103/109/102
f 7/130/55 65/133/62 141/132/114 133/131/92
f 135/134/89 142/137/117 68/136/63 5/135/60
f 67/138/64 143/141/116 140/140/115 66/139/65
f 140/142/115 141/145/114 65/144/62 66/143/65
f 67/146/64 68/149/63 142/148/117 143/147/116
f 146/156/119 147/159/109 144/158/108 145/157/112
f 95/160/79 147/166/109 146/165/119 151/164/120 150/163/113 93/162/95 152/161/94
f 150/106/113 151/168/120 148/167/111 149/105/110
f 145/157/112 148/167/111 151/168/120 146/156/119
f 123/107/107 153/170/107 155/169/118 132/92/48
f 123/84/107 122/11/80 154/42/80 153/80/107
f 95/12/79 152/41/94 154/42/80 122/11/80
f 132/92/48 155/169/118 82/171/69 11/91/48
f 155/172/118 157/175/121 89/174/70 82/173/69
f 158/176/122 156/179/85 86/178/18 88/177/73
f 136/180/82 156/184/85 158/183/122 157/182/121 155/181/118
f 88/177/73 89/186/70 157/185/121 158/176/122
